<mxfile host="app.diagrams.net" modified="2022-11-22T11:31:36.816Z" agent="5.0 (X11; Linux x86_64) AppleWebKit/537.36 (KHTML, like Gecko) Chrome/107.0.0.0 Safari/537.36" etag="t7KZNEViCEghRfGh-xOd" version="20.5.3" type="github">
  <diagram id="Zo2oEPKL_UhlFHdcNlqt" name="PÃ¡gina-1">
    <mxGraphModel dx="1348" dy="773" grid="1" gridSize="10" guides="1" tooltips="1" connect="1" arrows="1" fold="1" page="1" pageScale="1" pageWidth="827" pageHeight="1169" math="0" shadow="0">
      <root>
        <mxCell id="0" />
        <mxCell id="1" parent="0" />
        <mxCell id="uEtHyVghc9QXPonFyquQ-1" value="&lt;blockquote&gt;&lt;font face=&quot;Verdana&quot;&gt;Caffee i vainas&lt;/font&gt;&lt;/blockquote&gt;" style="rounded=0;whiteSpace=wrap;html=1;fontFamily=Helvetica;fillColor=#dae8fc;strokeColor=#6c8ebf;" vertex="1" parent="1">
          <mxGeometry x="210" y="40" width="766" height="90" as="geometry" />
        </mxCell>
        <mxCell id="uEtHyVghc9QXPonFyquQ-2" value="" style="whiteSpace=wrap;html=1;aspect=fixed;fontFamily=Verdana;" vertex="1" parent="1">
          <mxGeometry x="490" y="350" width="450" height="450" as="geometry" />
        </mxCell>
        <mxCell id="uEtHyVghc9QXPonFyquQ-5" value="" style="rounded=1;whiteSpace=wrap;html=1;fontFamily=Verdana;" vertex="1" parent="1">
          <mxGeometry x="510" y="350" width="410" height="60" as="geometry" />
        </mxCell>
        <mxCell id="uEtHyVghc9QXPonFyquQ-7" value="" style="rounded=0;whiteSpace=wrap;html=1;fontFamily=Verdana;" vertex="1" parent="1">
          <mxGeometry x="540" y="420" width="360" height="60" as="geometry" />
        </mxCell>
        <mxCell id="uEtHyVghc9QXPonFyquQ-8" value="" style="whiteSpace=wrap;html=1;aspect=fixed;fontFamily=Verdana;" vertex="1" parent="1">
          <mxGeometry x="600" y="490" width="240" height="240" as="geometry" />
        </mxCell>
        <mxCell id="uEtHyVghc9QXPonFyquQ-9" value="" style="rounded=1;whiteSpace=wrap;html=1;fontFamily=Verdana;" vertex="1" parent="1">
          <mxGeometry x="660" y="730" width="120" height="60" as="geometry" />
        </mxCell>
      </root>
    </mxGraphModel>
  </diagram>
</mxfile>
